<?xml version="1.0" ?><!DOCTYPE svg  PUBLIC '-//W3C//DTD SVG 1.1//EN'  'http://www.w3.org/Graphics/SVG/1.1/DTD/svg11.dtd'><svg height="47.8px" id="Layer_1" style="enable-background:new 0 0 53.2 47.8;" version="1.1" viewBox="0 0 53.2 47.8" width="53.2px" xml:space="preserve" xmlns="http://www.w3.org/2000/svg" xmlns:xlink="http://www.w3.org/1999/xlink"><path d="M26.3,47.8L26.3,47.8l-0.2,0C13.5,47.5,6.3,37.3,6,36.9C1.6,30.8,1.3,24.7,1.8,21c-0.3,0.3-0.7,0.4-1.1,0.3  c-0.4-0.2-0.7-0.6-0.6-1c0.5-4.6,3.2-8.4,4.6-10C3.8,9.5,3.3,8.7,3.3,8.6C3.1,8.2,3.1,7.7,3.4,7.4C3.8,7.1,4.2,7,4.6,7.2  C4.7,7.3,4.9,7.3,5,7.3C5.3,4.5,7,2.9,7.1,2.8c0.3-0.2,0.6-0.3,1-0.2C8.4,2.7,8.7,3,8.8,3.3c0.3,1.2,0.9,2.2,1.3,2.7  c0.8-0.3,1.7-0.4,2.6-0.4c1.3,0,2.6,0.3,3.3,0.5c1.2-1.7,3.2-2.6,5.5-2.6c0.9,0,1.6,0.2,1.7,0.2c0.4,0.1,0.7,0.4,0.8,0.8  c0.1,0.4-0.1,0.8-0.4,1c-2.5,1.6-2.9,3.4-2.9,4l1,1.1l3.6-0.2c1.4,0.1,1.9,0.6,2.1,1.1c0.6,1.2-0.3,2.5-0.5,2.8  c-0.1,0.1-0.1,0.2-0.2,0.2l-4.1,3.2c0.3,0.2,0.8,0.4,1.2,0.5c0.5,0.1,0.8,0.6,0.7,1.1c-0.1,0.7-0.7,1.9-3.2,1.9  c-0.7,0-1.4-0.1-1.7-0.1c-0.3,0.1-0.6,0.2-0.7,0.4c-0.2,0.4,0.3,1.4,0.6,2c1.2,1.4,2.5,2.1,3.9,2.1c0.9,0,1.6-0.3,1.9-0.5  c0.3-0.3,0.9-0.8,2.5-1.4c0.1,0,0.2-0.1,0.3-0.1c0.2,0,0.4,0,0.6,0c2,0,3.5,0.5,4.3,1.5c0.8,1,0.6,2,0.6,2.2c0,0.1,0,0.1,0,0.2  c-0.6,1.5-2.6,1.8-3.9,1.8c-2.2,1.9-5.2,2.5-7.2,2.6c3.4,1.6,7.6,1.3,7.7,1.3c0,0,0.1,0,0.1,0c5.5,0,7.3-5.9,7.3-6.2  c0.1-0.5,0.7-0.8,1.2-0.7c0,0,0.1,0,0.1,0c0.8-5.6,2-7.5,2.7-8c0.8-1.4,1-2.5,0.6-3.4c-0.8-1.7-3.5-2.2-3.6-2.2  c-0.1,0-0.1,0-0.2-0.1c-7.2-2.9-10.1-11-10.2-11.4c-0.1-0.4,0-0.9,0.3-1.1c0.3-0.3,0.8-0.3,1.2,0c2.3,1.5,5.8,1.8,7.6,1.8  c1.3,0,2.3-0.1,2.3-0.1c0.1,0,0.1,0,0.2,0c5.7,0.4,9.1,5,9.3,5.2c6.2,8.3,3.3,21.4,3.1,22c0,0,0,0.1,0,0.1  C45.1,47.3,28.2,47.8,26.3,47.8z M3.4,16.8c0.2,0,0.4,0.1,0.6,0.2c0.3,0.3,0.5,0.7,0.3,1.1c0,0.1-3,8.9,3.2,17.6  c0.1,0.1,7,9.9,18.5,10.1l0.1,0c1.8,0,17.4-0.5,24.2-17.3c0.2-1,2.6-13-2.8-20.3c0-0.1-3-4-7.7-4.4c-0.3,0-1.2,0.1-2.4,0.1  c-1.8,0-4-0.2-6.1-0.9c1.3,2.4,3.9,6.1,7.9,7.7c0.7,0.1,3.9,0.9,5,3.3c0.7,1.6,0.4,3.4-0.9,5.4c-0.1,0.1-0.2,0.2-0.3,0.3  c-0.1,0.1-1.8,1.8-2.4,10.5c0,0.3-0.2,0.7-0.5,0.8s-0.7,0.1-1,0c0,0-0.4-0.3-0.8-0.8c-1.5,2.3-4,4.7-8,4.7c0,0-0.4,0-1,0  c-2.2,0-7.8-0.4-10.8-3.8c-0.3-0.4-0.3-0.9,0-1.3c0.3-0.3,0.7-0.5,1.1-0.3c0.2,0,0.9,0.1,1.9,0.1c1.7,0,4.9-0.3,7.1-2.4  c0.2-0.2,0.5-0.3,0.7-0.3l0.2,0c1.2,0,1.9-0.3,2.1-0.5c0-0.1,0-0.3-0.2-0.4c-0.2-0.3-1-0.8-3.1-0.7c-0.6,0.2-1.3,0.6-1.5,0.7  c-0.1,0.1-0.2,0.2-0.3,0.3c-0.1,0.1-1.4,1-3.2,1c-1.4,0-3.4-0.5-5.4-2.9c-0.2-0.3-1.6-2.3-0.9-4c0.3-0.6,0.9-1.4,2.4-1.6  c0.1,0,0.2,0,0.3,0c0,0,0.8,0.1,1.6,0.1c-0.6-0.4-1-1-1.1-1.8c0-0.3,0.1-0.7,0.4-0.9l4.7-3.6c0.1-0.2,0.2-0.4,0.2-0.6  c-0.1,0-0.2,0-0.3,0l-4,0.2c-0.3,0-0.6-0.1-0.8-0.3l-1.6-1.7c-0.1-0.2-0.2-0.3-0.3-0.6c0-0.1-0.2-2.2,1.7-4.4  c-1.1,0.2-2.2,0.8-3,2.2c-0.2,0.4-0.7,0.6-1.2,0.5c0,0-1.7-0.6-3.4-0.6c-1,0-1.8,0.2-2.5,0.5C9.9,8.3,9.4,8.3,9.1,8  c0,0-0.9-0.9-1.6-2.3C7.2,6.3,7,7.1,6.9,8.2c0,0.3-0.2,0.7-0.5,0.9c0,0,0,0,0,0c0,0,0.1,0,0.1,0c0.3,0.1,0.5,0.4,0.6,0.7  c0.1,0.3,0,0.7-0.3,0.9c0,0-2.6,2.6-4,6.3c0,0,0,0,0.1,0C3.1,16.9,3.2,16.8,3.4,16.8z"/></svg>