<?xml version="1.0" encoding="utf-8"?>
<!-- Generator: Adobe Illustrator 20.0.0, SVG Export Plug-In . SVG Version: 6.00 Build 0)  -->
<svg preserveAspectRatio="xMidYMid slice" width="780px" height="439px" version="1.1" id="Layer_1" xmlns="http://www.w3.org/2000/svg" xmlns:xlink="http://www.w3.org/1999/xlink" x="0px" y="0px"
	 viewBox="0 0 80 45.2" style="enable-background:new 0 0 80 45.2;" xml:space="preserve">
<style type="text/css">
	.st0{fill:none;stroke:#1469B3;stroke-width:0.75;stroke-miterlimit:10;}
</style>
<polyline id="XMLID_423_" class="st0" points="46.2,36.6 21.7,36.6 21.7,0.5 51.4,0.5 51.4,22.5 "/>
<g id="XMLID_7_">
	<path id="XMLID_408_" class="st0" d="M41,11.3L41,11.3L40.9,9c0-2.4-2-4.4-4.4-4.4c-2.4,0-4.4,2-4.4,4.4v2.3H32
		c-0.9,0-1.6,0.7-1.6,1.6v9c0,0.9,0.7,1.6,1.6,1.6h9c0.9,0,1.6-0.7,1.6-1.6v-9C42.6,12,41.9,11.3,41,11.3z M33.7,11.3V9
		c0-1.6,1.3-2.8,2.8-2.8c1.6,0,2.8,1.3,2.8,2.8v2.3H33.7z"/>
	<path id="XMLID_407_" class="st0" d="M38,16.1c0-0.8-0.7-1.5-1.5-1.5c-0.8,0-1.5,0.7-1.5,1.5c0,0.7,0.4,1.2,1.1,1.4l-0.8,2.6h2.5
		l-0.7-2.6C37.6,17.2,38,16.7,38,16.1z"/>
</g>
<g id="XMLID_422_">
	<path id="XMLID_444_" class="st0" d="M48.4,21.9c0.3,0.1,0.5,0.3,0.8,0.4c0.1,0,0.1,0.1,0.2,0.2c0.2-0.2,0.3-0.5,0.5-0.7
		c0.2-0.3,0.4-0.3,0.7,0c0.2,0.2,0.4,0.4,0.6,0.6c0.2-0.2,0.5-0.4,0.7-0.6c0.2-0.2,0.4-0.2,0.6,0.1c0.1,0.3,0.3,0.5,0.4,0.8
		c0.3-0.1,0.5-0.2,0.8-0.4c0.3-0.2,0.5-0.1,0.6,0.3c0.1,0.3,0.1,0.6,0.2,0.9c0.3-0.1,0.6-0.1,0.9-0.2c0.3-0.1,0.5,0.1,0.5,0.4
		c0,0.3,0,0.6,0,0.9c0.3,0,0.6,0,0.9,0.1c0.3,0,0.5,0.2,0.4,0.5c-0.1,0.3-0.2,0.5-0.3,0.8c0.3,0.1,0.6,0.2,0.8,0.3
		c0.3,0.1,0.4,0.3,0.2,0.6c-0.2,0.2-0.3,0.5-0.5,0.7c0.2,0.2,0.5,0.3,0.7,0.5c0.3,0.2,0.3,0.4,0,0.6c-0.2,0.2-0.4,0.4-0.7,0.6
		c0.2,0.2,0.4,0.5,0.6,0.7c0.2,0.3,0.2,0.5-0.1,0.6c-0.3,0.1-0.5,0.3-0.8,0.4c0.1,0.3,0.3,0.5,0.4,0.8c0.1,0.3,0,0.5-0.3,0.5
		c-0.3,0.1-0.6,0.1-0.9,0.2c0.1,0.3,0.1,0.6,0.2,0.8c0.1,0.4-0.1,0.5-0.4,0.5c-0.3,0-0.5,0-0.8,0c0,0,0,0-0.1,0c0,0.3,0,0.6-0.1,0.8
		c0,0.4-0.2,0.5-0.5,0.4c-0.3-0.1-0.5-0.2-0.8-0.3c-0.1,0.3-0.2,0.5-0.3,0.8c-0.1,0.4-0.3,0.5-0.7,0.2c-0.2-0.1-0.5-0.3-0.7-0.4
		c-0.2,0.3-0.3,0.5-0.5,0.7c-0.2,0.3-0.4,0.3-0.6,0c-0.2-0.2-0.4-0.4-0.6-0.7c-0.2,0.2-0.4,0.4-0.7,0.6c-0.3,0.2-0.5,0.2-0.7-0.1
		c-0.1-0.2-0.3-0.5-0.4-0.8c-0.3,0.1-0.5,0.3-0.8,0.4c-0.3,0.1-0.5,0-0.6-0.3c-0.1-0.3-0.1-0.6-0.2-0.9c-0.3,0-0.5,0.1-0.8,0.1
		c-0.4,0.1-0.6,0-0.6-0.5c0-0.3,0-0.5,0-0.8c-0.3,0-0.5,0-0.8-0.1c-0.4,0-0.5-0.2-0.4-0.6c0.1-0.3,0.2-0.5,0.3-0.8
		c-0.3-0.1-0.5-0.2-0.8-0.3c-0.4-0.1-0.4-0.3-0.2-0.7c0.1-0.2,0.3-0.5,0.5-0.7c-0.2-0.2-0.5-0.3-0.7-0.5c-0.3-0.2-0.3-0.4,0-0.7
		c0.2-0.2,0.4-0.4,0.6-0.6c-0.2-0.2-0.4-0.4-0.6-0.7c-0.2-0.3-0.2-0.5,0.1-0.6c0.2-0.1,0.5-0.3,0.8-0.4c-0.1-0.3-0.2-0.5-0.4-0.8
		c-0.2-0.4-0.1-0.5,0.3-0.6c0.3-0.1,0.5-0.1,0.8-0.2c-0.1-0.3-0.1-0.6-0.2-0.9C45,24.1,45.1,24,45.4,24c0.3,0,0.6,0,0.9,0
		c0-0.3,0-0.6,0.1-0.9c0-0.3,0.2-0.5,0.5-0.4c0.3,0.1,0.6,0.2,0.8,0.3c0.1-0.4,0.3-0.7,0.4-1.1C48.2,21.9,48.2,22,48.4,21.9z
		 M52.5,33.5c2.4-0.9,3.7-3.7,2.7-6.2c-1-2.5-3.8-3.6-6.1-2.8c-2.5,0.9-3.8,3.7-2.9,6.2C47.2,33.2,50,34.5,52.5,33.5z"/>
	<path id="XMLID_443_" class="st0" d="M52.5,44.7c-0.2,0-0.3-0.2-0.4-0.4c-0.3-1.2-0.7-2.3-1-3.5c-0.1-0.2-0.1-0.4-0.2-0.6
		c0,0.2-0.1,0.3-0.1,0.4c-0.2,1.2-0.4,2.4-0.6,3.6c0,0.2-0.1,0.3-0.2,0.4c-0.2,0.1-0.3,0-0.4-0.2c-0.7-0.6-1.4-1.3-2.1-1.9
		c-0.1-0.1-0.2-0.1-0.3-0.1c-0.9,0.2-1.9,0.5-2.8,0.7c-0.2,0-0.3,0.1-0.4-0.1c-0.1-0.1-0.1-0.3,0-0.4c0.8-2.2,1.5-4.3,2.3-6.5
		c0,0,0-0.1,0-0.1c0.1,0.4,0.3,0.8,0.7,0.9c0.4,0.2,0.8,0,1.1-0.1c0.2,0.4,0.4,0.7,0.9,0.8c0.4,0.1,0.8-0.2,1.1-0.4
		c0.9,0.8,1.2,0.8,2-0.1c1.1,0.5,1.4,0.4,1.9-0.6c0.5,0.2,1,0.2,1.4-0.3c0,0,0.1,0,0.1,0.1c0.5,1,1,2,1.5,3c0.4,0.8,0.8,1.7,1.3,2.5
		c0.1,0.2,0.1,0.4,0,0.5c-0.1,0-0.2,0.1-0.2,0.1c0,0,0,0-0.1,0c-1-0.1-2-0.2-3-0.3c-0.1,0-0.2,0.1-0.2,0.1c-0.6,0.7-1.2,1.5-1.9,2.2
		c0,0,0,0.1-0.1,0.1C52.7,44.6,52.6,44.6,52.5,44.7z"/>
	<path id="XMLID_440_" class="st0" d="M49.6,26c-1.7,0.7-2.5,2.6-1.8,4.3c0.7,1.6,2.6,2.4,4.2,1.8c1.7-0.7,2.5-2.6,1.8-4.3
		C53.1,26.2,51.2,25.3,49.6,26z"/>
</g>
<line id="XMLID_413_" class="st0" x1="28.3" y1="27.7" x2="43.6" y2="27.7"/>
<line id="XMLID_414_" class="st0" x1="30.9" y1="29.5" x2="41.9" y2="29.5"/>
<line id="XMLID_415_" class="st0" x1="28.8" y1="31.6" x2="43.6" y2="31.6"/>
</svg>
